<svg width="28" height="21" viewBox="0 0 28 21" fill="none" xmlns="http://www.w3.org/2000/svg">
<g clip-path="url(#clip0_17_4)">
<path d="M17.5 3.9375C17.9153 3.9375 18.3214 3.82204 18.6667 3.60571C19.012 3.38938 19.2812 3.0819 19.4402 2.72216C19.5991 2.36242 19.6407 1.96657 19.5597 1.58467C19.4786 1.20277 19.2786 0.851969 18.9849 0.576634C18.6912 0.3013 18.3171 0.113795 17.9097 0.0378299C17.5023 -0.0381348 17.0801 0.000853032 16.6964 0.149863C16.3126 0.298873 15.9847 0.551213 15.7539 0.874972C15.5232 1.19873 15.4 1.57937 15.4 1.96875C15.4 2.4909 15.6213 2.99166 16.0151 3.36087C16.4089 3.73008 16.943 3.9375 17.5 3.9375ZM17.325 8.90039C17.5733 9.08677 17.882 9.18806 18.2 9.1875H21C21.3713 9.1875 21.7274 9.04922 21.99 8.80308C22.2525 8.55694 22.4 8.2231 22.4 7.875C22.4 7.5269 22.2525 7.19306 21.99 6.94692C21.7274 6.70078 21.3713 6.5625 21 6.5625H18.6909L15.575 4.22461C15.3207 4.03321 15.003 3.93122 14.6769 3.93631C14.3508 3.94141 14.0369 4.05326 13.7896 4.2525L8.88957 8.19C8.72544 8.32193 8.59613 8.4877 8.51178 8.67432C8.42743 8.86094 8.39032 9.06334 8.40338 9.26565C8.41643 9.46796 8.47929 9.66469 8.58702 9.84042C8.69475 10.0161 8.84442 10.1661 9.02432 10.2785L12.6 12.5147V17.0625C12.6 17.4106 12.7475 17.7444 13.0101 17.9906C13.2726 18.2367 13.6287 18.375 14 18.375C14.3713 18.375 14.7274 18.2367 14.99 17.9906C15.2525 17.7444 15.4 17.4106 15.4 17.0625V11.8125C15.4 11.5965 15.343 11.3838 15.2343 11.1933C15.1255 11.0028 14.9683 10.8405 14.7766 10.7207L12.9671 9.58986L15.5155 7.54236L17.325 8.90039ZM22.4 10.5C21.2924 10.5 20.2097 10.8079 19.2888 11.3848C18.3679 11.9617 17.6501 12.7816 17.2263 13.7409C16.8024 14.7002 16.6915 15.7558 16.9076 16.7742C17.1237 17.7926 17.657 18.7281 18.4402 19.4623C19.2234 20.1965 20.2212 20.6966 21.3075 20.8991C22.3938 21.1017 23.5198 20.9977 24.543 20.6004C25.5663 20.203 26.4409 19.5301 27.0562 18.6667C27.6716 17.8034 28 16.7884 28 15.75C28 14.3576 27.41 13.0223 26.3598 12.0377C25.3096 11.0531 23.8852 10.5 22.4 10.5ZM22.4 18.375C21.8462 18.375 21.3049 18.221 20.8444 17.9326C20.3839 17.6442 20.0251 17.2342 19.8131 16.7545C19.6012 16.2749 19.5458 15.7471 19.6538 15.2379C19.7618 14.7287 20.0285 14.261 20.4201 13.8938C20.8117 13.5267 21.3106 13.2767 21.8538 13.1754C22.3969 13.0742 22.9599 13.1261 23.4715 13.3248C23.9832 13.5235 24.4205 13.86 24.7281 14.2916C25.0358 14.7233 25.2 15.2308 25.2 15.75C25.2 16.4462 24.905 17.1139 24.3799 17.6062C23.8548 18.0984 23.1426 18.375 22.4 18.375ZM5.6 10.5C4.49243 10.5 3.40972 10.8079 2.48881 11.3848C1.56789 11.9617 0.850128 12.7816 0.426277 13.7409C0.00242637 14.7002 -0.108472 15.7558 0.107605 16.7742C0.323682 17.7926 0.857031 18.7281 1.6402 19.4623C2.42338 20.1965 3.4212 20.6966 4.5075 20.8991C5.59379 21.1017 6.71976 20.9977 7.74303 20.6004C8.7663 20.203 9.6409 19.5301 10.2562 18.6667C10.8716 17.8034 11.2 16.7884 11.2 15.75C11.2 14.3576 10.61 13.0223 9.5598 12.0377C8.5096 11.0531 7.08522 10.5 5.6 10.5ZM5.6 18.375C5.04622 18.375 4.50486 18.221 4.04441 17.9326C3.58395 17.6442 3.22507 17.2342 3.01314 16.7545C2.80121 16.2749 2.74577 15.7471 2.8538 15.2379C2.96184 14.7287 3.22852 14.261 3.6201 13.8938C4.01169 13.5267 4.5106 13.2767 5.05375 13.1754C5.5969 13.0742 6.15988 13.1261 6.67152 13.3248C7.18315 13.5235 7.62045 13.86 7.92812 14.2916C8.23579 14.7233 8.4 15.2308 8.4 15.75C8.4 16.4462 8.105 17.1139 7.5799 17.6062C7.0548 18.0984 6.34261 18.375 5.6 18.375Z" fill="#8BC34A"/>
</g>
<defs>
<clipPath id="clip0_17_4">
<rect width="28" height="21" fill="white"/>
</clipPath>
</defs>
</svg>
