<svg width="16" height="28" viewBox="0 0 16 28" fill="none" xmlns="http://www.w3.org/2000/svg">
<g clip-path="url(#clip0_22_28)">
<path d="M10.4011 5.25C11.7261 5.25 12.8011 4.07422 12.8011 2.625C12.8011 1.17578 11.7261 0 10.4011 0C9.07607 0 8.00107 1.17578 8.00107 2.625C8.00107 4.07422 9.07607 5.25 10.4011 5.25ZM15.1261 13.4039L13.9611 12.7586L13.4761 11.1508C12.7411 8.71172 10.6911 7.00547 8.36607 7C6.56607 6.99453 5.57107 7.55234 3.70107 8.37813C2.62107 8.85391 1.73607 9.75625 1.21607 10.9047L0.88107 11.6484C0.491069 12.5125 0.806069 13.5625 1.59107 13.9945C2.37107 14.4266 3.32107 14.0766 3.71607 13.2125L4.05107 12.4688C4.22607 12.0859 4.51607 11.7852 4.87607 11.6266L6.21607 11.0359L5.45607 14.3555C5.19607 15.493 5.47607 16.7016 6.20107 17.5711L9.19607 21.1477C9.55607 21.5797 9.81107 22.0992 9.94107 22.6625L10.8561 26.6711C11.0711 27.6063 11.9411 28.1805 12.7961 27.9453C13.6511 27.7102 14.1761 26.7586 13.9611 25.8234L12.8511 20.9563C12.7211 20.393 12.4661 19.868 12.1061 19.4414L9.83107 16.7234L10.6911 12.9664L10.9661 13.8688C11.2311 14.7492 11.8011 15.4766 12.5511 15.8922L13.7161 16.5375C14.4961 16.9695 15.4461 16.6195 15.8411 15.7555C16.2261 14.8969 15.9111 13.8359 15.1261 13.4039ZM3.68107 21.0984C3.52107 21.5414 3.28107 21.9406 2.97107 22.2742L0.471069 25.0141C-0.153931 25.6977 -0.153931 26.8078 0.471069 27.4914C1.09607 28.175 2.10607 28.175 2.73107 27.4914L5.70107 24.243C6.00607 23.9094 6.24607 23.5102 6.41107 23.0672L7.08607 21.2188C4.32107 17.9211 5.15107 18.9328 4.71607 18.282L3.68107 21.0984Z" fill="#00695C"/>
</g>
<defs>
<clipPath id="clip0_22_28">
<rect width="16" height="28" fill="white"/>
</clipPath>
</defs>
</svg>
